<svg aria-hidden="true" style="position: absolute; width: 0; height: 0; overflow: hidden;" version="1.1" xmlns="http://www.w3.org/2000/svg" xmlns:xlink="http://www.w3.org/1999/xlink">
<defs>
<symbol id="icon-heroicons-outline_menu-alt-1" viewBox="0 0 32 32">
<path stroke-linejoin="round" stroke-linecap="round" stroke-miterlimit="4" stroke-width="3" d="M5.333 8h21.334M5.333 16h10.667M5.333 24h21.334"></path>
</symbol>
<symbol id="icon-vector" viewBox="0 0 32 32">
<path d="M29.082 0.314h-4.010c-0.006-0-0.013-0-0.020-0-1.218 0-2.206 0.98-2.22 2.195v3.929c0.014 1.216 1.002 2.196 2.22 2.196 0.007 0 0.014-0 0.021-0h4.009c0.006 0 0.013 0 0.020 0 1.218 0 2.206-0.98 2.22-2.195v-3.929c-0.014-1.216-1.002-2.196-2.22-2.196-0.007 0-0.014 0-0.021 0h0.001zM6.73 23.040h-4.318c-1.332 0-2.412 0.984-2.412 2.196v3.928c0 1.214 1.080 2.196 2.412 2.196h4.32c1.33 0 2.41-0.982 2.41-2.196v-3.928c0-1.214-1.080-2.196-2.412-2.196zM6.25 11.58h-4.010c-1.238 0-2.24 0.986-2.24 2.2v3.928c0.013 1.216 1.002 2.196 2.22 2.196 0.007 0 0.014-0 0.021-0h4.009c0.006 0 0.013 0 0.020 0 1.218 0 2.206-0.98 2.22-2.195v-3.929c0-1.214-1.004-2.196-2.24-2.196zM17.766 22.98h-4.010c-1.236 0-2.24 0.98-2.24 2.194v3.928c0.014 1.216 1.002 2.196 2.22 2.196 0.007 0 0.014-0 0.021-0h4.009c0.006 0 0.013 0 0.020 0 1.218 0 2.206-0.98 2.22-2.195v-3.929c-0.014-1.216-1.002-2.196-2.22-2.196-0.007 0-0.014 0-0.021 0h0.001zM6.25 0.086h-4.010c-1.238 0-2.24 0.984-2.24 2.196v3.928c0.013 1.216 1.002 2.196 2.22 2.196 0.007 0 0.014-0 0.021-0h4.009c0.006 0 0.013 0 0.020 0 1.218 0 2.206-0.98 2.22-2.195v-3.929c0-1.212-1.004-2.196-2.24-2.196zM18.076 11.698h-4.010c-1.236 0-2.24 0.982-2.24 2.194v3.93c0.014 1.216 1.002 2.196 2.22 2.196 0.007 0 0.014-0 0.021-0h4.009c1.238 0 2.24-0.984 2.24-2.196v-3.93c0-1.212-1.002-2.194-2.24-2.194zM29.334 22.98h-4.010c-1.238 0-2.24 0.98-2.24 2.194v3.928c0.014 1.216 1.002 2.196 2.22 2.196 0.007 0 0.014-0 0.021-0h4.009c0.006 0 0.013 0 0.020 0 1.218 0 2.206-0.98 2.22-2.195v-3.929c0-1.214-1.004-2.196-2.24-2.196zM17.59 0.224h-4.008c-1.238 0-2.24 0.982-2.24 2.196v3.928c0.014 1.216 1.002 2.196 2.22 2.196 0.007 0 0.014-0 0.021-0h4.007c0.006 0 0.013 0 0.020 0 1.218 0 2.206-0.98 2.22-2.195v-3.929c0-1.214-1.002-2.196-2.24-2.196zM29.044 11.926h-4.010c-1.236 0-2.24 0.982-2.24 2.196v3.928c0.014 1.216 1.002 2.196 2.22 2.196 0.007 0 0.014-0 0.021-0h4.009c0.006 0 0.013 0 0.020 0 1.218 0 2.206-0.98 2.22-2.195v-3.929c0-1.214-1.004-2.196-2.24-2.196z"></path>
</symbol>
<symbol id="icon-x" viewBox="0 0 32 32">
<path stroke-linejoin="round" stroke-linecap="round" stroke-miterlimit="4" stroke-width="3" d="M24 8l-16 16M8 8l16 16"></path>
</symbol>
<symbol id="icon-1" viewBox="0 0 32 32">
<path fill="#7a3145" style="fill: var(--color1, #7a3145)" d="M28.923 16c0 7.137-5.786 12.923-12.923 12.923s-12.923-5.786-12.923-12.923c0-7.137 5.786-12.923 12.923-12.923s12.923 5.786 12.923 12.923z"></path>
<path fill="none" stroke="#7a3145" style="stroke: var(--color1, #7a3145)" stroke-linejoin="miter" stroke-linecap="butt" stroke-miterlimit="4" stroke-width="3.0769" d="M30.462 16c0 7.987-6.475 14.462-14.462 14.462s-14.462-6.475-14.462-14.462c0-7.987 6.475-14.462 14.462-14.462s14.462 6.475 14.462 14.462z"></path>
<path fill="#fbfbfb" style="fill: var(--color2, #fbfbfb)" d="M17.625 11.354v8.954h-1.61v-7.374h-0.054l-2.092 1.34v-1.49l2.223-1.43h1.532z"></path>
</symbol>
<symbol id="icon-2" viewBox="0 0 32 32">
<path fill="#7a3145" style="fill: var(--color1, #7a3145)" d="M28.923 16c0 7.137-5.786 12.923-12.923 12.923s-12.923-5.786-12.923-12.923c0-7.137 5.786-12.923 12.923-12.923s12.923 5.786 12.923 12.923z"></path>
<path fill="none" stroke="#7a3145" style="stroke: var(--color1, #7a3145)" stroke-linejoin="miter" stroke-linecap="butt" stroke-miterlimit="4" stroke-width="3.0769" d="M30.462 16c0 7.987-6.475 14.462-14.462 14.462s-14.462-6.475-14.462-14.462c0-7.987 6.475-14.462 14.462-14.462s14.462 6.475 14.462 14.462z"></path>
<path fill="#fbfbfb" style="fill: var(--color2, #fbfbfb)" d="M12.866 20.308v-1.166l3.113-3.052c0.292-0.301 0.537-0.567 0.733-0.8 0.201-0.232 0.351-0.456 0.451-0.673 0.1-0.22 0.15-0.455 0.15-0.703 0-0.28-0.064-0.523-0.193-0.727s-0.309-0.364-0.522-0.466l-0.008-0.003c-0.212-0.103-0.462-0.163-0.725-0.163-0.011 0-0.022 0-0.033 0l0.002-0c-0.296 0-0.554 0.060-0.775 0.18-0.219 0.12-0.395 0.294-0.514 0.504l-0.003 0.006c-0.12 0.221-0.18 0.483-0.18 0.788h-1.538c0-0.565 0.128-1.056 0.385-1.473 0.263-0.42 0.628-0.754 1.061-0.973l0.015-0.007c0.457-0.232 0.98-0.348 1.569-0.348 0.605 0 1.134 0.112 1.586 0.337s0.805 0.533 1.058 0.926c0.252 0.388 0.378 0.833 0.378 1.334-0.001 0.357-0.071 0.698-0.199 1.009l0.006-0.018c-0.128 0.32-0.354 0.679-0.679 1.076-0.321 0.393-0.771 0.868-1.352 1.424l-1.538 1.569v0.066h3.894v1.352h-6.142z"></path>
</symbol>
<symbol id="icon-3" viewBox="0 0 32 32">
<path fill="#7a3145" style="fill: var(--color1, #7a3145)" d="M28.923 16c0 7.137-5.786 12.923-12.923 12.923s-12.923-5.786-12.923-12.923c0-7.137 5.786-12.923 12.923-12.923s12.923 5.786 12.923 12.923z"></path>
<path fill="none" stroke="#7a3145" style="stroke: var(--color1, #7a3145)" stroke-linejoin="miter" stroke-linecap="butt" stroke-miterlimit="4" stroke-width="3.0769" d="M30.462 16c0 7.987-6.475 14.462-14.462 14.462s-14.462-6.475-14.462-14.462c0-7.987 6.475-14.462 14.462-14.462s14.462 6.475 14.462 14.462z"></path>
<path fill="#fbfbfb" style="fill: var(--color2, #fbfbfb)" d="M16.082 20.428c-0.629 0-1.188-0.106-1.677-0.318-0.489-0.217-0.875-0.517-1.16-0.902-0.28-0.385-0.426-0.83-0.438-1.334h1.634c0.012 0.244 0.090 0.457 0.234 0.637 0.148 0.177 0.345 0.314 0.59 0.415 0.244 0.096 0.517 0.144 0.817 0.144 0.32 0 0.603-0.055 0.847-0.168 0.248-0.116 0.443-0.273 0.583-0.469 0.14-0.2 0.21-0.431 0.21-0.691 0-0.273-0.072-0.513-0.217-0.721-0.14-0.208-0.345-0.37-0.613-0.486-0.268-0.117-0.591-0.175-0.967-0.175h-0.799v-1.25h0.799c0.305 0 0.575-0.054 0.811-0.162s0.421-0.258 0.553-0.45c0.132-0.197 0.198-0.425 0.198-0.686 0-0.252-0.058-0.473-0.174-0.661-0.115-0.19-0.279-0.34-0.475-0.436l-0.007-0.003c-0.208-0.104-0.452-0.156-0.732-0.156-0.273 0-0.527 0.050-0.764 0.15-0.233 0.097-0.421 0.234-0.565 0.415-0.137 0.178-0.22 0.404-0.222 0.649v0h-1.557c0.008-0.501 0.15-0.942 0.427-1.322 0.28-0.381 0.655-0.677 1.124-0.89 0.469-0.216 0.993-0.324 1.574-0.324 0.593 0 1.11 0.112 1.551 0.337 0.445 0.22 0.788 0.519 1.028 0.895 0.244 0.377 0.367 0.791 0.367 1.244 0 0.505-0.148 0.928-0.445 1.268-0.297 0.341-0.687 0.566-1.172 0.674v0.066c0.625 0.088 1.103 0.32 1.436 0.697 0.336 0.377 0.505 0.846 0.505 1.406 0 0.008 0 0.017 0 0.027 0 0.496-0.16 0.954-0.432 1.326l0.004-0.006c-0.284 0.393-0.674 0.701-1.172 0.925s-1.066 0.337-1.706 0.337z"></path>
</symbol>
</defs>
</svg>
